<svg xmlns="http://www.w3.org/2000/svg" xml:space="preserve" width="408.37332" height="225.34666" viewBox="0 0 408.37332 225.34666"><path d="m2254.44 934.969-102.1-33.274v125.665l102.1 73.96V934.969M3062.7 1690.07l-571.91-415.8-.07-287.633 186.99 53.743V525.699l385.11-124.898-.12 1289.269" style="fill:#f47216;fill-opacity:1;fill-rule:nonzero;stroke:none" transform="matrix(.13333 0 0 -.13333 0 225.347)"/><path d="m2490.72 986.637-118.91-34.16V409.781l305.84-222.051.06 338.309-186.91 59.313-.08 401.285M2457.85 1001.32l-185.68-60.343v221.853l185.79 155.88-.11-317.39M2344.57 944.348l-174.02-49.555.12-72.379 52.31 3.672-.05-123.289 121.66-30.426-.02 271.977" style="fill:#f47216;fill-opacity:1;fill-rule:nonzero;stroke:none" transform="matrix(.13333 0 0 -.13333 0 225.347)"/><path d="m2170.87 822.504-54.57-3.91-.21-180.903 106.89-61.66-.05 126.766-52.28 12.996.22 106.711" style="fill:#f47216;fill-opacity:1;fill-rule:nonzero;stroke:none" transform="matrix(.13333 0 0 -.13333 0 225.347)"/><path d="M3.02 77.371h26.632c20.86 0 24.72-13.95 24.72-37.582 0-11.719 1.772-38.527-25.356-38.527H3.02Zm15.996-64.41h7.675c9.696 0 11.54 7.289 11.54 26.371 0 13.957 0 26.34-11.067 26.34h-8.148V12.96M82.52 1.262l21.101 76.11h21.008l20.687-76.11h-16.781l-4.254 16.82h-21.703l-4.355-16.82Zm30.687 61.476h-.215l-7.265-32.847h15.195l-7.715 32.847M173.926 1.262v76.11h41.535v-11.7h-25.52v-18.75h23.532V35.18h-23.532V12.96h26.43V1.263h-42.445M282.559 46.922v30.45h15.882V1.261h-15.882V35.18h-18.305V1.262h-15.887v76.11h15.887v-30.45h18.305M327.695 1.262l21.071 76.11h21.019l20.653-76.11h-16.762l-4.223 16.82h-21.75l-4.344-16.82Zm30.668 61.476h-.258l-7.214-32.847h15.183l-7.711 32.847M419.23 1.262v76.11h21.489l20.254-52.75h.187v52.75h14.875V1.261h-20.984l-20.766 55.636h-.258V1.262H419.23M576.035 1.262v76.11h25.707l11.848-51.77h.254l12.609 51.77h24.793V1.261h-15.504V59.96h-.25l-14.601-58.7h-15.192l-13.914 58.7h-.203V1.26h-15.547M736.832 77.371v-53.96C736.832 12.018 730.469 0 711.016 0c-17.532 0-25.938 9.082-25.938 23.41v53.961h15.961V24.47c0-9.399 3.973-13.07 9.789-13.07 6.969 0 10.086 4.64 10.086 13.07V77.37h15.918M771.105 1.262v76.11h15.961V13.948h23.758V1.262h-39.719M878.238 77.371V64.738h-17.703V1.262h-15.918v63.476h-17.742v12.633h51.363M906.855 1.262h15.879v76.11h-15.879ZM957.422 77.371h28.699c14.519 0 20.239-8.91 20.239-22.742 0-8.7-2.53-22.367-21.2-22.367h-11.84v-31h-15.898Zm15.898-33.46h8.848c4.77 0 8.012 5.218 8.012 10.269 0 6.23-1.633 11.492-8.848 11.492h-8.012V43.91M1037.24 1.262v76.11h15.96V13.948h23.82V1.262h-39.78M1105.12 1.262v76.11h41.57v-11.7H1121v-18.75h23.64V35.18H1121V12.96h26.53V1.263h-42.41M1174.12 77.371h18.07l10.89-25.012 10.64 25.012h16.53l-18.93-37.582 19.27-38.527h-18l-11.76 26.218-11.67-26.218h-16.46l19.74 39.847-18.32 36.262M1345.29 0c-19.68 0-23.39 11.66-22.55 24.7h15.94c0-7.188.29-13.302 9.04-13.302 5.36 0 8.05 3.48 8.05 8.614 0 13.707-32.07 14.539-32.07 37.219 0 11.949 5.69 21.41 25.09 21.41 15.43 0 23.13-6.95 22.06-22.871h-15.37c0 5.71-1.01 11.48-7.45 11.48-5.12 0-8.2-2.82-8.2-8.129 0-14.473 32.01-13.191 32.01-37.09 0-19.73-14.45-22.031-26.55-22.031M1404.43 1.262h15.922v76.11h-15.922ZM1455.04 1.262v76.11h21.49l20.25-52.75h.29v52.75h14.77V1.261h-20.94l-20.77 55.636h-.24V1.262h-14.85M1545.69 39.332c0 20.117 0 39.309 26.3 39.309 16.19 0 22.77-8.961 22.13-25.352h-15.69c0 10.133-1.69 13.961-6.44 13.961-9 0-10.14-8.43-10.14-27.918 0-19.523 1.14-27.934 10.14-27.934 7.32 0 7.04 9.473 7.28 15.461h15.63C1594.9 6.54 1586.83 0 1571.99 0c-26.3 0-26.3 19.422-26.3 39.332M1626.26 1.262v76.11h41.56v-11.7h-25.64v-18.75h23.66V35.18h-23.66V12.96h26.46V1.263h-42.38M1698.7 63.422c5.29 3 10.46 6.488 14.21 11.41h14.15V1.262h-15.95v56.59c-3.82-3.133-8.11-5.871-12.41-8.223v13.793M1779.39 18.54c0-1.9.17-3.802 1.07-5.25.8-1.27 2.12-2.208 4.33-2.208 7.45 0 6.56 5.977 6.56 23.469-3.4-3.39-7.47-4.832-12.27-4.832-11.22 0-15.58 10.14-15.58 19.91 0 14.441 4.5 26.16 20.96 26.16 21.88 0 21.8-17.379 21.8-38.027 0-18.16-.33-37.43-21.85-37.43-12.76 0-20.16 4.277-19.82 18.207zm5.37 21.32c6.25 0 6.59 8.5 6.59 13.05 0 4.63-.22 12.762-6.56 12.762-6.38 0-6.38-8.531-6.38-13.063 0-4.558 0-12.75 6.35-12.75M1847.88 45.121l.29-.25c2.34 3.488 6.35 4.98 10.64 4.98 12.2 0 15.71-8.34 15.71-24.25 0-19.69-7.36-25.269-22.38-25.269-12.24 0-19.98 5-19.61 18.207h14.93c0-2.02.2-3.918 1.09-5.258.79-1.332 2.16-2.199 4.45-2.199 5.97 0 6.71 4.527 6.71 14.52 0 4.718.38 14.699-6.34 14.699-4.31 0-5.59-4.77-5.59-8.14h-14.36v42.671h38.46v-11.41h-24v-18.3M1915.95 45.121l.25-.25c2.32 3.488 6.25 4.98 10.68 4.98 12.07 0 15.64-8.34 15.64-24.25 0-19.69-7.35-25.269-22.43-25.269-12.22 0-19.93 5-19.5 18.207h14.85c0-2.02.21-3.918 1.01-5.258.9-1.332 2.21-2.199 4.64-2.199 5.88 0 6.55 4.527 6.55 14.52 0 4.718.5 14.699-6.25 14.699-4.33 0-5.61-4.77-5.61-8.14h-14.32v42.671h38.42v-11.41h-23.93v-18.3" style="fill:#1e418f;fill-opacity:1;fill-rule:nonzero;stroke:none" transform="matrix(.13333 0 0 -.13333 0 225.347)"/><path d="M3.02 77.371h26.632c20.86 0 24.72-13.95 24.72-37.582 0-11.719 1.772-38.527-25.356-38.527H3.02Zm15.996-64.41h7.675c9.696 0 11.54 7.289 11.54 26.371 0 13.957 0 26.34-11.067 26.34h-8.148V12.96M82.52 1.262l21.101 76.11h21.008l20.687-76.11h-16.781l-4.254 16.82h-21.703l-4.355-16.82Zm30.687 61.476h-.215l-7.265-32.847h15.195l-7.715 32.847M173.926 1.262v76.11h41.535v-11.7h-25.52v-18.75h23.532V35.18h-23.532V12.96h26.43V1.263h-42.445M282.559 46.922v30.45h15.882V1.261h-15.882V35.18h-18.305V1.262h-15.887v76.11h15.887v-30.45h18.305M327.695 1.262l21.071 76.11h21.019l20.653-76.11h-16.762l-4.223 16.82h-21.75l-4.344-16.82Zm30.668 61.476h-.258l-7.214-32.847h15.183l-7.711 32.847M419.23 1.262v76.11h21.489l20.254-52.75h.187v52.75h14.875V1.261h-20.984l-20.766 55.636h-.258V1.262H419.23M576.035 1.262v76.11h25.707l11.848-51.77h.254l12.609 51.77h24.793V1.261h-15.504V59.96h-.25l-14.601-58.7h-15.192l-13.914 58.7h-.203V1.26h-15.547M736.832 77.371v-53.96C736.832 12.018 730.469 0 711.016 0c-17.532 0-25.938 9.082-25.938 23.41v53.961h15.961V24.47c0-9.399 3.973-13.07 9.789-13.07 6.969 0 10.086 4.64 10.086 13.07V77.37h15.918M771.105 1.262v76.11h15.961V13.948h23.758V1.262h-39.719M878.238 77.371V64.738h-17.703V1.262h-15.918v63.476h-17.742v12.633h51.363M906.855 1.262h15.879v76.11h-15.879ZM957.422 77.371h28.699c14.519 0 20.239-8.91 20.239-22.742 0-8.7-2.53-22.367-21.2-22.367h-11.84v-31h-15.898Zm15.898-33.46h8.848c4.77 0 8.012 5.218 8.012 10.269 0 6.23-1.633 11.492-8.848 11.492h-8.012V43.91M1037.24 1.262v76.11h15.96V13.948h23.82V1.262h-39.78M1105.12 1.262v76.11h41.57v-11.7H1121v-18.75h23.64V35.18H1121V12.96h26.53V1.263h-42.41M1174.12 77.371h18.07l10.89-25.012 10.64 25.012h16.53l-18.93-37.582 19.27-38.527h-18l-11.76 26.218-11.67-26.218h-16.46l19.74 39.847-18.32 36.262M1345.29 0c-19.68 0-23.39 11.66-22.55 24.7h15.94c0-7.188.29-13.302 9.04-13.302 5.36 0 8.05 3.48 8.05 8.614 0 13.707-32.07 14.539-32.07 37.219 0 11.949 5.69 21.41 25.09 21.41 15.43 0 23.13-6.95 22.06-22.871h-15.37c0 5.71-1.01 11.48-7.45 11.48-5.12 0-8.2-2.82-8.2-8.129 0-14.473 32.01-13.191 32.01-37.09 0-19.73-14.45-22.031-26.55-22.031M1404.43 1.262h15.922v76.11h-15.922ZM1455.04 1.262v76.11h21.49l20.25-52.75h.29v52.75h14.77V1.261h-20.94l-20.77 55.636h-.24V1.262h-14.85M1545.69 39.332c0 20.117 0 39.309 26.3 39.309 16.19 0 22.77-8.961 22.13-25.352h-15.69c0 10.133-1.69 13.961-6.44 13.961-9 0-10.14-8.43-10.14-27.918 0-19.523 1.14-27.934 10.14-27.934 7.32 0 7.04 9.473 7.28 15.461h15.63C1594.9 6.54 1586.83 0 1571.99 0c-26.3 0-26.3 19.422-26.3 39.332M1626.26 1.262v76.11h41.56v-11.7h-25.64v-18.75h23.66V35.18h-23.66V12.96h26.46V1.263h-42.38M1698.7 63.422c5.29 3 10.46 6.488 14.21 11.41h14.15V1.262h-15.95v56.59c-3.82-3.133-8.11-5.871-12.41-8.223v13.793M1779.39 18.54c0-1.9.17-3.802 1.07-5.25.8-1.27 2.12-2.208 4.33-2.208 7.45 0 6.56 5.977 6.56 23.469-3.4-3.39-7.47-4.832-12.27-4.832-11.22 0-15.58 10.14-15.58 19.91 0 14.441 4.5 26.16 20.96 26.16 21.88 0 21.8-17.379 21.8-38.027 0-18.16-.33-37.43-21.85-37.43-12.76 0-20.16 4.277-19.82 18.207zm5.37 21.32c6.25 0 6.59 8.5 6.59 13.05 0 4.63-.22 12.762-6.56 12.762-6.38 0-6.38-8.531-6.38-13.063 0-4.558 0-12.75 6.35-12.75M1847.88 45.121l.29-.25c2.34 3.488 6.35 4.98 10.64 4.98 12.2 0 15.71-8.34 15.71-24.25 0-19.69-7.36-25.269-22.38-25.269-12.24 0-19.98 5-19.61 18.207h14.93c0-2.02.2-3.918 1.09-5.258.79-1.332 2.16-2.199 4.45-2.199 5.97 0 6.71 4.527 6.71 14.52 0 4.718.38 14.699-6.34 14.699-4.31 0-5.59-4.77-5.59-8.14h-14.36v42.671h38.46v-11.41h-24v-18.3M1915.95 45.121l.25-.25c2.32 3.488 6.25 4.98 10.68 4.98 12.07 0 15.64-8.34 15.64-24.25 0-19.69-7.35-25.269-22.43-25.269-12.22 0-19.93 5-19.5 18.207h14.85c0-2.02.21-3.918 1.01-5.258.9-1.332 2.21-2.199 4.64-2.199 5.88 0 6.55 4.527 6.55 14.52 0 4.718.5 14.699-6.25 14.699-4.33 0-5.61-4.77-5.61-8.14h-14.32v42.671h38.42v-11.41h-23.93v-18.3M988.32 533.07V269.699h90.59v93.852h78.68v80.828h-78.68v88.691h-90.59M674.57 284.949h-83.078V135.301h513.568v80.789H682.227v68.859h-7.657M229.871 439.738v80.782H0V147.68h251.973v80.789H90.961v211.269h138.91M513.695 533.07h-82.953V375.52h-45.293v157.55h-90.605V132.059h90.605v162.632h45.293V132.059h90.606V533.07h-7.653M1693.83 292.441h-492.87v-80.703h409.83v-85.789h90.67v166.492h-7.63M1548.45 407.551h-367.14V326.82h539.73v80.731h-82.05v134.347h-373.38v-80.789h282.84v-53.558" style="fill:#231f20;fill-opacity:1;fill-rule:nonzero;stroke:none" transform="matrix(.13333 0 0 -.13333 0 225.347)"/><path d="M717.797 572.18v-51.309H591.492v-80.789h62.641c-6.633-14.91-10.125-31.113-10.125-47.5 0-65.703 53.496-119.07 119.058-119.07 65.61 0 119.082 53.367 119.082 119.07 0 16.387-3.535 32.59-10.023 47.5h62.531v80.789H808.379v51.309zm6.988-179.598c0 21.09 17.153 38.219 38.281 38.219 21.153 0 38.372-17.129 38.372-38.219 0-21.203-17.219-38.273-38.372-38.273-21.128 0-38.281 17.07-38.281 38.273M2234.11 533.07h-83.12V286.109h90.59v77.442h78.72v80.828h-78.72v88.691h-7.47M2069.52 522.898h-309.18v-80.769h83.5c-24.1-19.359-98.95-79.438-98.95-79.438l58.02-69.109s106.88 89.77 115.79 97.316c9.04-7.546 115.95-97.316 115.95-97.316l58.07 69.109s-74.9 60.079-99.1 79.438h83.56v80.769h-7.66" style="fill:#231f20;fill-opacity:1;fill-rule:nonzero;stroke:none" transform="matrix(.13333 0 0 -.13333 0 225.347)"/><path d="M1955.8 179.98c0-65.66 53.42-119.082 119.05-119.082 65.68 0 118.97 53.422 118.97 119.082 0 65.711-53.29 119.051-118.97 119.051-65.63 0-119.05-53.34-119.05-119.051zm80.69 0c0 21.129 17.14 38.27 38.36 38.27 21.1 0 38.33-17.141 38.33-38.27 0-21.21-17.23-38.359-38.33-38.359-21.22 0-38.36 17.149-38.36 38.359" style="fill:#231f20;fill-opacity:1;fill-rule:nonzero;stroke:none" transform="matrix(.13333 0 0 -.13333 0 225.347)"/></svg>